<svg width="24" height="24" viewBox="0 0 24 24" fill="none" xmlns="http://www.w3.org/2000/svg">
<path d="M15.7133 15.7133C14.6918 16.5191 13.4021 17 12 17C8.68629 17 6 14.3137 6 11C6 10.4477 5.55228 10 5 10C4.44772 10 4 10.4477 4 11C4 15.0796 7.05369 18.446 11 18.9381V21C11 21.5523 11.4477 22 12 22C12.5523 22 13 21.5523 13 21V18.9381C14.5631 18.7432 15.9861 18.0973 17.1348 17.1348L15.7133 15.7133Z" fill="#12131A"/>
<path d="M8 8V11C8 13.2091 9.79086 15 12 15C12.8492 15 13.6365 14.7354 14.2841 14.2841L8 8Z" fill="#12131A"/>
<path fill-rule="evenodd" clip-rule="evenodd" d="M19.0001 10C19.5524 10 20.0001 10.4477 20.0001 11C20.0001 11.7926 19.8845 12.5599 19.6687 13.2852C19.5111 13.8146 18.9543 14.116 18.425 13.9585C17.8956 13.8009 17.5942 13.2441 17.7518 12.7148C17.9131 12.1726 18.0001 11.5974 18.0001 11C18.0001 10.4477 18.4478 10 19.0001 10Z" fill="#12131A"/>
<path fill-rule="evenodd" clip-rule="evenodd" d="M9.01855 3.33309C9.74954 2.51635 10.815 2 11.9998 2C14.2089 2 15.9998 3.79086 15.9998 6V9C15.9998 9.55228 15.5521 10 14.9998 10C14.4475 10 13.9998 9.55228 13.9998 9V6C13.9998 4.89543 13.1044 4 11.9998 4C11.4075 4 10.8765 4.25615 10.5088 4.66691C10.1405 5.07844 9.50829 5.11346 9.09677 4.74513C8.68524 4.37681 8.65022 3.74461 9.01855 3.33309Z" fill="#12131A"/>
<path fill-rule="evenodd" clip-rule="evenodd" d="M2.29289 2.29289C2.68342 1.90237 3.31658 1.90237 3.70711 2.29289L21.7071 20.2929C22.0976 20.6834 22.0976 21.3166 21.7071 21.7071C21.3166 22.0976 20.6834 22.0976 20.2929 21.7071L2.29289 3.70711C1.90237 3.31658 1.90237 2.68342 2.29289 2.29289Z" fill="#12131A"/>
</svg>
