<svg width="24" height="24" viewBox="0 0 24 24" fill="none" xmlns="http://www.w3.org/2000/svg">
<path d="M6 11C6 10.4477 5.55228 10 5 10C4.44772 10 4 10.4477 4 11C4 15.0796 7.05369 18.446 11 18.9381V21C11 21.5523 11.4477 22 12 22C12.5523 22 13 21.5523 13 21V18.9381C16.9463 18.446 20 15.0796 20 11C20 10.4477 19.5523 10 19 10C18.4477 10 18 10.4477 18 11C18 14.3137 15.3137 17 12 17C8.68629 17 6 14.3137 6 11Z" fill="#12131A"/>
<path d="M8 6C8 3.79086 9.79086 2 12 2V2C14.2091 2 16 3.79086 16 6V11C16 13.2091 14.2091 15 12 15V15C9.79086 15 8 13.2091 8 11V6Z" fill="#12131A"/>
</svg>
