<svg width="24" height="24" viewBox="0 0 24 24" fill="none" xmlns="http://www.w3.org/2000/svg">
<path d="M18 3C18 2.44772 17.5523 2 17 2C16.4477 2 16 2.44772 16 3V10C16 10.5523 16.4477 11 17 11C17.5523 11 18 10.5523 18 10V3Z" fill="#12131A"/>
<path d="M18 18C18 17.4477 17.5523 17 17 17C16.4477 17 16 17.4477 16 18V21C16 21.5523 16.4477 22 17 22C17.5523 22 18 21.5523 18 21V18Z" fill="#12131A"/>
<path d="M7 2C7.55229 2 8 2.44772 8 3L8 6C8 6.55228 7.55229 7 7 7C6.44772 7 6 6.55228 6 6L6 3C6 2.44772 6.44772 2 7 2Z" fill="#12131A"/>
<path d="M8 14C8 13.4477 7.55228 13 7 13C6.44772 13 6 13.4477 6 14L6 21C6 21.5523 6.44772 22 7 22C7.55228 22 8 21.5523 8 21L8 14Z" fill="#12131A"/>
<path d="M14 16C14 17.6569 15.3431 19 17 19C18.6569 19 20 17.6569 20 16C20 14.3431 18.6569 13 17 13C15.3431 13 14 14.3431 14 16Z" fill="#12131A"/>
<path d="M4 8C4 9.65685 5.34315 11 7 11C8.65685 11 10 9.65685 10 8C10 6.34315 8.65685 5 7 5C5.34315 5 4 6.34315 4 8Z" fill="#12131A"/>
</svg>
